 <svg xmlns="http://www.w3.org/2000/svg" height="24" viewBox="0 0 24 24" width="24">
    <path
        d="M20.8 5.3C20.6 5.1 20.3 5 20 5H6.2L6 3.8C5.9 3.4 5.5 3 5 3H2.8c-0.6 0-1 0.4-1 1s0.4 1 1 1h1.4l1.9 11.2c0 0 0 0.1 0 0.1 0 0.1 0 0.1 0.1 0.2 0 0.1 0.1 0.1 0.1 0.2 0 0 0.1 0.1 0.1 0.1 0.1 0.1 0.1 0.1 0.2 0.1 0 0 0.1 0 0.1 0.1C6.7 17 6.9 17 7 17 7 17 18 17 18 17c0.6 0 1-0.4 1-1s-0.4-1-1-1H7.8l-0.2-1H19c0.5 0 0.9-0.4 1-0.9l1-7C21 5.9 20.9 5.6 20.8 5.3zM18.8 7l-0.3 2H15V7H18.8zM14 7v2h-3V7H14zM14 10v2h-3v-2H14zM10 7v2H7C6.9 9 6.9 9 6.9 9L6.5 7H10zM7 10H10v2H7.3L7 10zM15 12v-2h3.4l-0.3 2H15z" />
    <circle cx="8.5" cy="19.5" r="1.5" />
    <circle cx="17.5" cy="19.5" r="1.5" />
</svg>